<svg width="20" height="20" viewBox="0 0 20 20" fill="none" xmlns="http://www.w3.org/2000/svg">
<path d="M18.926 8.16333C18.8918 8.12917 15.5468 4.75 13.941 3.04167C13.5878 2.69586 13.1136 2.50152 12.6193 2.5C11.6343 2.5 10.8335 3.24667 10.8335 4.16667H4.16683C3.94582 4.16667 3.73385 4.25446 3.57757 4.41074C3.42129 4.56702 3.3335 4.77899 3.3335 5V16.6667C3.3335 16.8877 3.42129 17.0996 3.57757 17.2559C3.73385 17.4122 3.94582 17.5 4.16683 17.5H15.8335C16.0545 17.5 16.2665 17.4122 16.4228 17.2559C16.579 17.0996 16.6668 16.8877 16.6668 16.6667V11.6292C17.4181 10.8633 18.1712 10.0991 18.926 9.33667C19.0809 9.18071 19.1678 8.96981 19.1678 8.75C19.1678 8.53019 19.0809 8.31929 18.926 8.16333ZM12.7327 13.2842L12.6193 13.3333L12.4993 13.3V10H11.666C10.1902 10.0283 8.886 10.5667 7.70516 11.6317C8.0635 9.78583 9.0385 7.5 11.666 7.5H12.4993V4.20167L12.6193 4.16667L12.7477 4.20833C13.9443 5.47917 16.1235 7.6975 17.1618 8.75C16.951 8.96417 13.5435 12.435 12.7327 13.2842ZM5.00016 15.8333V5.83333H11.6668V6.66667C7.7835 6.66667 6.66683 10.7258 6.66683 13.75V14.1667C8.076 12.0183 9.66683 10.8725 11.6668 10.8333V13.3333C11.6668 13.7925 12.0935 14.1667 12.6193 14.1667C12.9227 14.1667 13.1827 14.035 13.3552 13.8408C13.8043 13.37 14.3902 12.765 15.0018 12.1383V15.8333H5.00016Z" fill="white"/>
</svg>
