<svg width="18" height="18" viewBox="0 0 18 18" fill="none" xmlns="http://www.w3.org/2000/svg">
<path d="M9 2.9999V1.6574C9 1.3199 8.595 1.1549 8.3625 1.3949L6.2625 3.4874C6.1125 3.6374 6.1125 3.8699 6.2625 4.0199L8.355 6.1124C8.595 6.3449 9 6.1799 9 5.8424V4.4999C11.4825 4.4999 13.5 6.5174 13.5 8.9999C13.5 9.5924 13.3875 10.1699 13.17 10.6874C13.0575 10.9574 13.14 11.2649 13.3425 11.4674C13.725 11.8499 14.37 11.7149 14.5725 11.2124C14.85 10.5299 15 9.7799 15 8.9999C15 5.6849 12.315 2.9999 9 2.9999ZM9 13.4999C6.5175 13.4999 4.5 11.4824 4.5 8.9999C4.5 8.4074 4.6125 7.8299 4.83 7.3124C4.9425 7.0424 4.86 6.7349 4.6575 6.5324C4.275 6.1499 3.63 6.2849 3.4275 6.7874C3.15 7.4699 3 8.2199 3 8.9999C3 12.3149 5.685 14.9999 9 14.9999V16.3424C9 16.6799 9.405 16.8449 9.6375 16.6049L11.73 14.5124C11.88 14.3624 11.88 14.1299 11.73 13.9799L9.6375 11.8874C9.58463 11.8356 9.5176 11.8006 9.44486 11.7868C9.37212 11.773 9.29692 11.781 9.22875 11.8099C9.16057 11.8388 9.10247 11.8872 9.06176 11.949C9.02106 12.0109 8.99957 12.0834 9 12.1574V13.4999Z" fill="#F8F8F8"/>
</svg>
